<?xml version="1.0" encoding="UTF-8" standalone="no"?>
<svg
   width="433"
   height="256"
   viewBox="0 0 433 256"
   fill="none"
   version="1.1"
   id="svg45295"
   sodipodi:docname="arrow.svg"
   inkscape:version="1.2.2 (b0a8486541, 2022-12-01)"
   xmlns:inkscape="http://www.inkscape.org/namespaces/inkscape"
   xmlns:sodipodi="http://sodipodi.sourceforge.net/DTD/sodipodi-0.dtd"
   xmlns="http://www.w3.org/2000/svg"
   xmlns:svg="http://www.w3.org/2000/svg">
  <defs
     id="defs45299" />
  <sodipodi:namedview
     id="namedview45297"
     pagecolor="#ffffff"
     bordercolor="#000000"
     borderopacity="0.25"
     inkscape:showpageshadow="2"
     inkscape:pageopacity="0.0"
     inkscape:pagecheckerboard="0"
     inkscape:deskcolor="#d1d1d1"
     showgrid="false"
     inkscape:zoom="0.51548347"
     inkscape:cx="-180.41316"
     inkscape:cy="144.52452"
     inkscape:window-width="1536"
     inkscape:window-height="796"
     inkscape:window-x="0"
     inkscape:window-y="0"
     inkscape:window-maximized="1"
     inkscape:current-layer="svg45295" />
  <path
     d="M295.686 252.682C285.553 245.759 288.397 241.868 341.133 190.51C368.802 163.564 391.441 140.877 391.441 140.093C391.441 139.311 304.528 138.668 198.302 138.668C50.9986 138.668 4.53949 138.064 2.53764 136.109C-0.845879 132.808 -0.845879 123.196 2.53764 119.896C4.53949 117.943 50.9986 117.335 198.302 117.335C304.528 117.335 391.441 116.859 391.441 116.284C391.441 115.703 368.802 93.0768 341.133 65.9965C310.369 35.8876 290.825 15.1629 290.825 12.648C290.825 7.55385 298.284 0.00238037 303.315 0.00238037C305.372 0.00238037 335.393 27.5793 370.028 61.2858C419.591 109.52 433 123.727 433 128.002C433 132.277 419.591 146.483 370.028 194.717C335.393 228.423 305.591 256.002 303.802 256.002C302.012 256.002 298.36 254.509 295.686 252.682Z"
     fill="white"
     id="path45293"
     style="fill:#0d0d0d;fill-opacity:1" />
</svg>
