<?xml version="1.0" encoding="UTF-8" standalone="no"?>
<!-- Created with Inkscape (http://www.inkscape.org/) -->

<svg
   width="968.375mm"
   height="645.58331mm"
   viewBox="0 0 968.375 645.58331"
   version="1.1"
   id="svg79876"
   xml:space="preserve"
   xmlns:inkscape="http://www.inkscape.org/namespaces/inkscape"
   xmlns:sodipodi="http://sodipodi.sourceforge.net/DTD/sodipodi-0.dtd"
   xmlns="http://www.w3.org/2000/svg"
   xmlns:svg="http://www.w3.org/2000/svg"><sodipodi:namedview
     id="namedview79878"
     pagecolor="#ffffff"
     bordercolor="#000000"
     borderopacity="0.25"
     inkscape:showpageshadow="2"
     inkscape:pageopacity="0.0"
     inkscape:pagecheckerboard="0"
     inkscape:deskcolor="#d1d1d1"
     inkscape:document-units="mm"
     showgrid="false"
     inkscape:zoom="0.36380796"
     inkscape:cx="1296.0134"
     inkscape:cy="454.91033"
     inkscape:window-width="1536"
     inkscape:window-height="796"
     inkscape:window-x="0"
     inkscape:window-y="0"
     inkscape:window-maximized="1"
     inkscape:current-layer="layer1" /><defs
     id="defs79873" /><g
     inkscape:label="Layer 1"
     inkscape:groupmode="layer"
     id="layer1"
     transform="translate(-867.77706,393.71245)"><rect
       style="fill:#4b8dca;fill-opacity:1;stroke-width:0.529167;stroke-linejoin:round;stop-color:#000000"
       id="rect84304"
       width="968.375"
       height="645.58331"
       x="867.77704"
       y="-393.71243"
       inkscape:export-filename="rect84304.svg"
       inkscape:export-xdpi="96"
       inkscape:export-ydpi="96" /><path
       style="fill:#ffffff;stroke-width:0.371834"
       d="m 1339.5115,149.70869 c -61.4999,-3.70173 -117.9654,-32.09767 -157.1291,-79.018804 -27.78,-33.28252 -45.1339,-73.8126563 -49.9643,-116.691678 -2.0238,-17.966538 -1.6808,-38.861866 0.937,-57.076488 6.7059,-46.66043 28.6733,-90.29753 62.4288,-124.01195 30.9726,-30.93491 68.9485,-51.3827 112.1217,-60.37101 12.3858,-2.57863 25.0569,-3.92248 39.6002,-4.19983 15.5988,-0.2975 26.8975,0.48745 41.1013,2.85544 66.2654,11.04751 123.7439,51.7416 156.7118,110.9502 12.7225,22.84924 21.4598,48.71645 25.2589,74.78087 2.6114,17.915833 2.9598,39.255409 0.9289,56.886854 -6.5601,56.954746 -34.2246,108.375313 -77.9343,144.858544 -36.1226,30.150642 -80.1012,47.736142 -127.2889,50.898522 -5.0109,0.3358 -22.0357,0.42444 -26.772,0.13927 z m 2.7886,-81.238326 V 14.873617 l -4.5548,0.254243 c -19.2357,1.073706 -39.1647,4.341174 -56.8475,9.320463 -9.4328,2.656166 -9.9897,2.844709 -9.9897,3.382356 0,0.623275 1.8158,4.85788 4.8719,11.361701 13.728,29.215192 33.5286,56.341927 57.143,78.28571 l 4.9383,4.58902 h 2.2195 2.2193 z m 28.3362,49.378846 c 25.5238,-23.551729 47.4532,-54.596302 61.0663,-86.449544 1.5081,-3.52878 1.5807,-3.987347 0.6742,-4.257191 -14.6876,-4.372906 -23.9587,-6.598399 -35.828,-8.60026 -10.174,-1.715968 -27.419,-3.558966 -33.333,-3.562353 l -1.5802,-8.99e-4 v 53.544073 53.544074 h 2.2149 2.2147 z m 40.8249,-4.77925 c 16.6891,-5.39602 32.4694,-13.0117 47.2229,-22.789956 11.5712,-7.669044 20.5281,-15.068554 30.9831,-25.595684 5.6504,-5.689304 6.9048,-7.134122 6.5071,-7.49447 -0.7317,-0.662935 -6.5104,-4.194833 -12.2054,-7.459659 -8.7554,-5.019299 -23.0136,-11.97899 -30.7059,-14.988082 l -1.8889,-0.738853 -2.5407,5.825989 c -3.0654,7.028637 -8.575,18.150247 -12.1663,24.558939 -9.3306,16.650112 -21.6232,34.027356 -33.7001,47.639416 -1.5423,1.73832 -3.1247,3.52535 -3.5165,3.97114 -0.7123,0.81057 -0.712,0.81057 2.7676,-0.12733 1.9138,-0.51587 6.0733,-1.77653 9.2431,-2.80142 z m -107.3093,2.58591 c -0.3896,-0.45853 -1.8961,-2.17362 -3.3478,-3.81129 -18.1242,-20.445618 -34.4419,-46.156652 -45.7048,-72.015335 l -2.5376,-5.825989 -1.8889,0.741087 c -7.3176,2.871059 -22.4814,10.271482 -30.5413,14.905083 -4.9179,2.82721 -10.9311,6.494615 -12.1989,7.439927 -0.6442,0.480309 -0.1958,1.018252 6.3212,7.583317 7.969,8.027942 13.4883,12.878768 21.5159,18.910305 17.5977,13.221817 36.8804,23.188085 57.4484,29.692235 8.1442,2.57539 10.0433,3.12701 10.9338,3.17569 0.6966,0.0381 0.6966,0.0249 0,-0.79503 z M 1200.0737,39.393823 c 10.9422,-6.904726 28.0548,-15.856269 39.8934,-20.868121 4.802,-2.032876 6.0099,-2.685087 5.8309,-3.148349 -0.8201,-2.120879 -3.7845,-12.5522901 -5.344,-18.8041718 -4.2357,-16.9800352 -6.9993,-35.4457692 -7.7628,-51.8708142 l -0.2679,-5.763422 -36.7185,-0.09473 -36.7186,-0.09473 2e-4,1.768023 c 9e-4,4.930777 1.6909,18.200826 3.3978,26.680885 4.983,24.7538467 14.5009,47.666438 28.6833,69.049298 2.4057,3.627098 4.2842,6.109127 4.5172,5.968282 0.2195,-0.132666 2.2395,-1.402532 4.489,-2.822068 z m 311.8853,-1.735179 c 18.8788,-27.617442 30.8772,-62.266178 32.8585,-94.888515 l 0.2443,-4.020753 -36.7748,0.09472 -36.7746,0.09472 -0.2465,5.391592 c -0.7637,16.695956 -3.4803,34.94098 -7.7509,52.0567297 -1.5308,6.1350686 -4.6011,16.9771533 -5.3776,18.9900863 -0.1786,0.463107 1.0307,1.116696 5.8311,3.15095 12.2967,5.211005 29.5421,14.247206 39.8935,20.903311 2.2496,1.446519 4.3344,2.600976 4.6327,2.565478 0.2985,-0.03556 1.8575,-1.987793 3.4643,-4.338448 z M 1270.4861,7.5541711 c 14.7905,-4.4171473 30.4527,-7.69696763 46.1576,-9.6658156 7.6694,-0.9614749 18.5515,-1.8613521 22.5888,-1.8679289 l 3.0676,-0.00563 V -32.615784 -61.24698 h -45.4192 -45.4193 l 0.258,4.9268 c 0.7825,14.935409 3.1915,31.448472 6.7672,46.3862707 1.8353,7.6674547 5.2193,19.3353548 5.6076,19.3353548 0.1139,0 2.9897,-0.8312823 6.3917,-1.8472846 z m 169.744,1.1965764 c 0.1037,-0.357888 0.779,-2.5749499 1.5017,-4.9267996 5.5141,-17.9481839 9.4464,-40.5217329 10.4847,-60.1864759 l 0.2577,-4.884442 h -45.4193 -45.4193 v 28.631196 28.6312109 h 2.9453 c 3.9408,0 15.5523,0.9522696 22.8972,1.8778234 15.5384,1.95805469 33.4946,5.7697041 47.0369,9.984761 5.493,1.7097002 5.4744,1.7068614 5.7151,0.8727262 z M 1232.7526,-85.694041 c 1.0924,-21.766389 6.1765,-48.930959 12.843,-68.620459 l 1.107,-3.26964 -0.9886,-0.3759 c -12.1002,-4.60042 -32.9237,-15.23502 -45.9871,-23.48556 l -4.437,-2.80231 -0.9789,1.35635 c -12.3184,17.06823 -22.9854,39.50536 -28.8257,60.63345 -3.1711,11.47118 -5.7044,26.353186 -6.3506,37.306729 l -0.2577,4.369042 h 36.8095 36.8096 z m 109.5475,-23.519489 v -28.63121 l -2.6957,-0.001 c -3.4588,-0.001 -11.6682,-0.59753 -18.3128,-1.32858 -18.5857,-2.04486 -35.9879,-5.66963 -54.9216,-11.43987 l -1.7493,-0.53314 -1.1131,3.39802 c -4.7849,14.60842 -8.5811,32.29309 -10.4276,48.575784 -0.674,5.943869 -1.5021,15.707624 -1.5057,17.75506 v 0.836623 h 45.3638 45.3636 z m 110.0629,27.73085 c 0,-0.495192 -0.2523,-4.050856 -0.5605,-7.901462 -1.635,-20.420698 -5.3551,-39.507238 -11.3751,-58.359988 l -1.0834,-3.39231 -4.7383,1.44024 c -10.9207,3.31921 -25.0379,6.55767 -37.0881,8.50792 -10.842,1.7547 -26.5671,3.33831 -33.1863,3.34201 l -2.6957,0.001 v 28.63121 28.631197 h 45.3637 45.3637 z m 92.5862,-0.865868 c 0,-4.6215 -1.6574,-17.956812 -3.1989,-25.748952 -4.978,-25.1644 -14.5682,-48.39845 -28.8905,-69.99222 -3.925,-5.91769 -4.1648,-6.19746 -4.8982,-5.7169 -3.6696,2.40447 -12.5522,7.7435 -17.0567,10.25216 -8.7616,4.87959 -25.4794,12.85724 -32.6674,15.58865 l -1.0043,0.38167 1.1069,3.26964 c 6.6924,19.76548 11.7252,46.72023 12.8474,68.805361 l 0.2502,4.9268 h 36.7561 36.7559 z M 1342.3001,-210.35235 v -53.54407 h -0.9804 c -1.2096,0 -4.1529,2.55182 -13.2812,11.51496 -23.6169,23.18937 -41.5925,49.15383 -55.0192,79.47112 l -1.6788,3.79105 2.2936,0.75007 c 18.0153,5.89122 47.053,10.92125 66.3421,11.49217 l 2.3239,0.0687 z m 36.068,52.39398 c 17.9837,-1.80231 37.3742,-5.69151 51.9334,-10.41653 l 2.2937,-0.74439 -1.6807,-3.79105 c -8.2306,-18.56399 -18.4156,-35.86958 -30.3515,-51.57169 -7.8885,-10.37752 -15.0823,-18.49787 -25.0349,-28.25938 -9.181,-9.00471 -11.6697,-11.15501 -12.9113,-11.15501 h -0.9812 v 53.58879 53.58881 l 4.7408,-0.25645 c 2.6076,-0.14104 8.0038,-0.58344 11.9917,-0.9831 z m -122.8832,-22.46135 c 12.3169,-27.94522 29.5005,-54.23077 49.5501,-75.79642 1.3014,-1.39982 2.2865,-2.62478 2.1893,-2.72208 -0.2648,-0.26472 -8.1511,1.91396 -15.3076,4.22879 -19.9304,6.44674 -38.9267,16.35887 -56.147,29.29713 -8.071,6.06419 -13.5758,10.89915 -21.515,18.89727 l -7.0136,7.06565 0.8783,0.67205 c 3.6738,2.81104 20.473,12.13043 29.8814,16.57683 4.3029,2.03352 15.1883,6.77789 15.2994,6.66816 0.029,-0.0294 1.013,-2.22877 2.1847,-4.88738 z m 205.4303,0.56108 c 4.4477,-1.95852 16.2824,-7.86862 20.451,-10.21294 4.8284,-2.71533 14.8586,-8.80123 15.0704,-9.1441 0.2801,-0.45306 -13.0924,-13.78659 -18.2312,-18.1782 -19.5383,-16.69735 -41.9451,-29.38405 -65.6285,-37.15874 -6.5728,-2.15764 -15.2328,-4.57613 -15.7584,-4.40088 -0.1948,0.0649 0.7237,1.28 2.0409,2.70025 13.7266,14.80072 26.1564,31.78444 36.5865,49.99108 3.7279,6.50759 10.2633,19.50105 13.2102,26.26465 l 1.9659,4.51236 3.3803,-1.409 c 1.8593,-0.77493 4.9701,-2.10896 6.9129,-2.96448 z"
       id="path84387" /></g></svg>
