<?xml version="1.0" encoding="UTF-8" standalone="no"?>
<!-- Created with Inkscape (http://www.inkscape.org/) -->

<svg
   width="48.584049mm"
   height="52.351536mm"
   viewBox="0 0 48.584048 52.351536"
   version="1.1"
   id="svg5"
   xml:space="preserve"
   inkscape:version="1.2.2 (b0a8486541, 2022-12-01)"
   sodipodi:docname="favicon.svg"
   xmlns:inkscape="http://www.inkscape.org/namespaces/inkscape"
   xmlns:sodipodi="http://sodipodi.sourceforge.net/DTD/sodipodi-0.dtd"
   xmlns="http://www.w3.org/2000/svg"
   xmlns:svg="http://www.w3.org/2000/svg"><sodipodi:namedview
     id="namedview7"
     pagecolor="#ffffff"
     bordercolor="#000000"
     borderopacity="0.25"
     inkscape:showpageshadow="2"
     inkscape:pageopacity="0.0"
     inkscape:pagecheckerboard="0"
     inkscape:deskcolor="#d1d1d1"
     inkscape:document-units="mm"
     showgrid="false"
     inkscape:zoom="0.83829561"
     inkscape:cx="44.733623"
     inkscape:cy="98.413971"
     inkscape:window-width="1536"
     inkscape:window-height="796"
     inkscape:window-x="0"
     inkscape:window-y="0"
     inkscape:window-maximized="1"
     inkscape:current-layer="layer1"
     showguides="false"><sodipodi:guide
       position="-273.53361,1706.3605"
       orientation="1,0"
       id="guide670"
       inkscape:locked="false" /><sodipodi:guide
       position="-189.39008,1730.6343"
       orientation="0,-1"
       id="guide781"
       inkscape:locked="false" /><sodipodi:guide
       position="-53.232374,1826.4401"
       orientation="-0.79031164,-0.61270508"
       id="guide1769"
       inkscape:locked="false" /><sodipodi:guide
       position="-59.394414,1818.9945"
       orientation="0.37807621,-0.92577447"
       id="guide1832"
       inkscape:locked="false" /><sodipodi:guide
       position="-301.62845,1594.5907"
       orientation="0,-1"
       id="guide2057"
       inkscape:locked="false" /><sodipodi:guide
       position="-123.69642,1840.9579"
       orientation="0.94661075,0.32237879"
       id="guide2160"
       inkscape:locked="false" /><sodipodi:guide
       position="-108.76038,1840.9579"
       orientation="0.94661852,-0.32235597"
       id="guide2162"
       inkscape:locked="false" /><sodipodi:guide
       position="436.17486,1668.6577"
       orientation="0,-1"
       id="guide4039"
       inkscape:locked="false" /><sodipodi:guide
       position="434.87166,1654.1747"
       orientation="0,-1"
       id="guide4041"
       inkscape:locked="false" /><sodipodi:guide
       position="437.28136,1665.3468"
       orientation="0,-1"
       id="guide4043"
       inkscape:locked="false" /><sodipodi:guide
       position="880.22925,640.66263"
       orientation="0,-1"
       id="guide11124"
       inkscape:locked="false" /><sodipodi:guide
       position="764.2889,258.99334"
       orientation="-0.5,-0.8660254"
       id="guide14566"
       inkscape:locked="false"
       inkscape:label=""
       inkscape:color="rgb(0,134,229)" /><sodipodi:guide
       position="764.2889,258.99334"
       orientation="0.5,-0.8660254"
       id="guide14568"
       inkscape:locked="false"
       inkscape:label=""
       inkscape:color="rgb(0,134,229)" /><sodipodi:guide
       position="764.2889,258.99334"
       orientation="1,0"
       id="guide14570"
       inkscape:locked="false" /><sodipodi:guide
       position="764.2889,258.99334"
       orientation="0,-1"
       id="guide14572"
       inkscape:locked="false" /><sodipodi:guide
       position="764.2889,258.99334"
       orientation="-0.8660254,-0.5"
       id="guide16889"
       inkscape:locked="false"
       inkscape:label=""
       inkscape:color="rgb(0,134,229)" /><sodipodi:guide
       position="764.2889,258.99334"
       orientation="0.8660254,-0.5"
       id="guide16891"
       inkscape:locked="false"
       inkscape:label=""
       inkscape:color="rgb(0,134,229)" /></sodipodi:namedview><defs
     id="defs2" /><g
     inkscape:label="Layer 1"
     inkscape:groupmode="layer"
     id="layer1"
     transform="translate(-634.74403,-1825.729)"><path
       style="fill:#9aba9f;fill-opacity:1;stroke-width:0.264583"
       d="m 660.15623,1863.9265 c -7.11525,-0.5521 -11.65801,-6.2534 -10.7027,-13.4321 0.52196,-3.9223 1.69951,-6.3437 4.34739,-8.9396 3.11482,-3.0537 7.1781,-4.6327 11.90817,-4.6276 1.96036,0 2.65005,0.1166 3.72992,0.6195 1.51878,0.7073 2.89125,2.1476 3.62324,3.8024 0.63799,1.4423 1.25933,4.3395 1.26405,5.8942 l 0.004,1.1907 -5.42765,1.4285 c -2.9852,0.7856 -5.46539,1.3809 -5.51152,1.3229 -0.0461,-0.058 -0.36145,-1.1579 -0.70069,-2.4441 -0.51369,-1.9475 -0.55581,-2.3762 -0.25193,-2.564 0.20068,-0.1241 1.41248,-0.4844 2.69289,-0.8008 1.28041,-0.3163 2.3986,-0.6894 2.48486,-0.829 0.2428,-0.3928 -0.93101,-1.4879 -1.9583,-1.8269 -2.97196,-0.9809 -7.65282,1.615 -9.45421,5.243 -0.62355,1.2559 -0.75701,1.8592 -0.74781,3.3808 0.0333,5.5114 3.8291,7.9381 10.31977,6.5974 3.57332,-0.7381 6.56104,-2.4377 9.67854,-5.5058 2.1765,-2.142 2.31741,-2.7781 2.31833,-10.4662 0.001,-8.9653 0.2843,-16.1572 0.6364,-16.1602 0.15889,0 1.33069,0.3823 2.604,0.8526 l 2.3151,0.8551 v 10.3366 c 0,11.4864 -0.0606,12.018 -1.73423,15.2028 -0.509,0.9687 -1.60695,2.5322 -2.43988,3.4747 -5.29694,5.9932 -10.57707,8.0486 -18.99736,7.3951 z"
       id="path844" /><path
       style="fill:#9aba9f;fill-opacity:1;stroke-width:0.264583"
       d="m 654.09125,1877.9176 c -3.88018,-0.532 -6.52908,-1.6439 -8.65637,-3.6338 -2.24938,-2.104 -3.40897,-4.6893 -3.96013,-8.829 -0.24816,-1.8638 -0.39895,-2.3365 -0.74547,-2.3365 -0.88679,0 -2.83777,-0.8336 -3.7923,-1.6204 -4.14858,-3.4196 -2.47977,-10.1122 5.59354,-22.4324 6.36885,-9.7191 12.64085,-12.6388 28.29562,-13.172 l 4.82865,-0.1645 0.002,1.166 c 10e-4,0.6413 0.0745,1.7665 0.16266,2.5004 l 0.16037,1.3343 -6.04965,0.325 c -11.28171,0.6062 -15.10502,1.794 -19.281,5.9899 -5.09932,5.1237 -11.69582,17.5369 -10.70466,20.1439 0.26953,0.7089 2.07357,1.1673 4.59372,1.1673 h 1.66612 l 0.15755,3.6381 c 0.30379,7.0147 1.78639,9.3575 6.67654,10.5502 2.39388,0.5839 9.47673,0.5812 14.28159,-0.01 1.89177,-0.2309 3.57284,-0.4209 3.7357,-0.4222 0.26584,0 1.0548,4.688 0.82693,4.9158 -0.0487,0.049 -1.57148,0.2762 -3.38393,0.5055 -4.06436,0.5143 -11.91739,0.7212 -14.40786,0.3797 z"
       id="path786" /></g></svg>
